<?xml version="1.0" encoding="UTF-8" standalone="no"?>
<!-- Created with Inkscape (http://www.inkscape.org/) -->

<svg
   width="512"
   height="512"
   viewBox="0 0 135.46666 135.46667"
   version="1.1"
   id="svg5"
   xml:space="preserve"
   inkscape:version="1.2.2 (b0a8486541, 2022-12-01)"
   sodipodi:docname="icon.svg"
   xmlns:inkscape="http://www.inkscape.org/namespaces/inkscape"
   xmlns:sodipodi="http://sodipodi.sourceforge.net/DTD/sodipodi-0.dtd"
   xmlns="http://www.w3.org/2000/svg"
   xmlns:svg="http://www.w3.org/2000/svg"><sodipodi:namedview
     id="namedview7"
     pagecolor="#505050"
     bordercolor="#eeeeee"
     borderopacity="1"
     inkscape:showpageshadow="0"
     inkscape:pageopacity="0"
     inkscape:pagecheckerboard="0"
     inkscape:deskcolor="#505050"
     inkscape:document-units="mm"
     showgrid="false"
     inkscape:zoom="1.829812"
     inkscape:cx="114.49264"
     inkscape:cy="215.59592"
     inkscape:window-width="2560"
     inkscape:window-height="1398"
     inkscape:window-x="1080"
     inkscape:window-y="480"
     inkscape:window-maximized="1"
     inkscape:current-layer="g11624" /><defs
     id="defs2" /><g
     inkscape:label="Layer 1"
     inkscape:groupmode="layer"
     id="layer1"><g
       id="g8271"><g
         id="g8275"
         transform="rotate(-66.11954,54.430683,61.206705)"><g
           id="g8279"
           transform="matrix(2.3770216,-0.05339643,-0.05339638,2.2800548,-72.266598,-60.635521)"><path
             style="fill:#992222;fill-opacity:1;stroke-width:0.264583"
             id="path2314"
             sodipodi:type="arc"
             sodipodi:cx="55.794235"
             sodipodi:cy="61.201805"
             sodipodi:rx="28.767048"
             sodipodi:ry="28.767048"
             sodipodi:start="0"
             sodipodi:end="3.1415927"
             sodipodi:open="true"
             sodipodi:arc-type="arc"
             d="M 84.561283,61.201805 A 28.767048,28.767048 0 0 1 70.177759,86.1148 28.767048,28.767048 0 0 1 41.410711,86.114799 28.767048,28.767048 0 0 1 27.027187,61.201805" /><path
             style="fill:#2c9922;fill-opacity:1;stroke-width:0.264583"
             id="path2314-3"
             sodipodi:type="arc"
             sodipodi:cx="-53.067131"
             sodipodi:cy="-61.211605"
             sodipodi:rx="28.767048"
             sodipodi:ry="28.767048"
             sodipodi:start="0"
             sodipodi:end="3.1415927"
             sodipodi:open="true"
             sodipodi:arc-type="arc"
             d="m -24.300083,-61.211605 a 28.767048,28.767048 0 0 1 -14.383524,24.912994 28.767048,28.767048 0 0 1 -28.767049,0 28.767048,28.767048 0 0 1 -14.383523,-24.912994"
             transform="scale(-1)" /></g><g
           style="fill:#000000"
           id="g11624"
           transform="matrix(1.1425196,2.5806175,-2.5806175,1.1425196,71.10527,31.335071)"><path
             d="M 0,0 H 24 V 24 H 0 Z"
             fill="none"
             id="path11612" /><path
             d="M 1,21 H 5 V 9 H 1 Z M 23,10 C 23,8.9 22.1,8 21,8 H 14.69 L 15.64,3.43 15.67,3.11 C 15.67,2.7 15.5,2.32 15.23,2.05 L 14.17,1 7.59,7.59 C 7.22,7.95 7,8.45 7,9 v 10 c 0,1.1 0.9,2 2,2 h 9 c 0.83,0 1.54,-0.5 1.84,-1.22 l 3.02,-7.05 C 22.95,12.5 23,12.26 23,12 Z"
             id="path11614"
             style="stroke-width:0.99992129;stroke-dasharray:none;stroke:none;stroke-opacity:1;fill:#ffffff;fill-opacity:1" /></g></g></g></g></svg>
